<svg xmlns="http://www.w3.org/2000/svg" xmlns:xlink="http://www.w3.org/1999/xlink" width="500" zoomAndPan="magnify" viewBox="0 0 375 374.999991" height="500" preserveAspectRatio="xMidYMid meet" version="1.0"><defs><g/><clipPath id="242e1b5eb1"><path d="M 79 139.253906 L 141 139.253906 L 141 184 L 79 184 Z M 79 139.253906 " clip-rule="nonzero"/></clipPath><clipPath id="b1ffa6bb43"><path d="M 48.429688 165 L 110 165 L 110 217 L 48.429688 217 Z M 48.429688 165 " clip-rule="nonzero"/></clipPath></defs><rect x="-37.5" width="450" fill="#ffffff" y="-37.499999" height="449.999989" fill-opacity="1"/><rect x="-37.5" width="450" fill="#ffffff" y="-37.499999" height="449.999989" fill-opacity="1"/><g clip-path="url(#242e1b5eb1)"><path fill="#e96311" d="M 115.46875 183.113281 C 114.910156 183.117188 114.421875 182.933594 114 182.5625 C 113.78125 182.371094 113.609375 182.140625 113.480469 181.878906 C 113.351562 181.613281 113.28125 181.335938 113.261719 181.042969 C 113.246094 180.75 113.289062 180.46875 113.382812 180.191406 C 113.480469 179.914062 113.628906 179.667969 113.824219 179.449219 L 115.777344 177.257812 C 116.21875 176.769531 116.765625 176.527344 117.421875 176.535156 L 133.957031 176.535156 C 134.25 176.535156 134.527344 176.476562 134.796875 176.367188 C 135.066406 176.253906 135.300781 176.097656 135.507812 175.890625 C 135.714844 175.683594 135.871094 175.449219 135.984375 175.179688 C 136.09375 174.910156 136.148438 174.632812 136.148438 174.339844 L 136.148438 145.832031 C 136.148438 145.539062 136.09375 145.261719 135.984375 144.992188 C 135.871094 144.722656 135.714844 144.488281 135.507812 144.28125 C 135.300781 144.074219 135.066406 143.917969 134.796875 143.804688 C 134.527344 143.695312 134.25 143.636719 133.957031 143.636719 L 85.710938 143.636719 C 85.421875 143.636719 85.140625 143.695312 84.871094 143.804688 C 84.601562 143.917969 84.367188 144.074219 84.160156 144.28125 C 83.953125 144.488281 83.796875 144.722656 83.683594 144.992188 C 83.574219 145.261719 83.519531 145.539062 83.519531 145.832031 L 83.519531 161.183594 C 83.519531 161.472656 83.460938 161.753906 83.351562 162.023438 C 83.238281 162.289062 83.082031 162.527344 82.875 162.734375 C 82.671875 162.9375 82.433594 163.097656 82.164062 163.207031 C 81.894531 163.320312 81.617188 163.375 81.324219 163.375 C 81.035156 163.375 80.753906 163.320312 80.484375 163.207031 C 80.21875 163.097656 79.980469 162.9375 79.773438 162.734375 C 79.570312 162.527344 79.410156 162.289062 79.300781 162.023438 C 79.1875 161.753906 79.132812 161.472656 79.132812 161.183594 L 79.132812 145.832031 C 79.132812 145.398438 79.175781 144.972656 79.257812 144.546875 C 79.34375 144.125 79.46875 143.710938 79.632812 143.3125 C 79.796875 142.914062 80 142.535156 80.242188 142.175781 C 80.480469 141.816406 80.753906 141.484375 81.058594 141.179688 C 81.363281 140.875 81.695312 140.601562 82.054688 140.359375 C 82.414062 140.121094 82.792969 139.917969 83.195312 139.753906 C 83.59375 139.589844 84.003906 139.464844 84.425781 139.378906 C 84.851562 139.292969 85.277344 139.253906 85.710938 139.253906 L 133.957031 139.253906 C 134.390625 139.253906 134.816406 139.292969 135.242188 139.378906 C 135.664062 139.464844 136.074219 139.589844 136.476562 139.753906 C 136.875 139.917969 137.253906 140.121094 137.613281 140.359375 C 137.972656 140.601562 138.304688 140.875 138.609375 141.179688 C 138.914062 141.484375 139.1875 141.816406 139.425781 142.175781 C 139.667969 142.535156 139.871094 142.914062 140.035156 143.3125 C 140.199219 143.710938 140.324219 144.125 140.410156 144.546875 C 140.496094 144.972656 140.535156 145.398438 140.535156 145.832031 L 140.535156 174.339844 C 140.535156 174.773438 140.496094 175.199219 140.410156 175.625 C 140.324219 176.046875 140.199219 176.460938 140.035156 176.859375 C 139.871094 177.257812 139.667969 177.636719 139.425781 177.996094 C 139.1875 178.355469 138.914062 178.6875 138.609375 178.992188 C 138.304688 179.296875 137.972656 179.570312 137.613281 179.8125 C 137.253906 180.050781 136.875 180.253906 136.476562 180.417969 C 136.074219 180.585938 135.664062 180.707031 135.242188 180.792969 C 134.816406 180.878906 134.390625 180.917969 133.957031 180.917969 L 118.410156 180.917969 L 117.09375 182.390625 C 116.660156 182.871094 116.117188 183.109375 115.46875 183.113281 Z M 115.46875 183.113281 " fill-opacity="1" fill-rule="nonzero"/></g><path fill="#e96311" d="M 113.980469 235.746094 C 113.324219 235.75 112.773438 235.507812 112.335938 235.019531 L 105.164062 226.972656 L 90.097656 226.972656 C 89.664062 226.972656 89.238281 226.929688 88.8125 226.847656 C 88.390625 226.761719 87.980469 226.636719 87.578125 226.472656 C 87.179688 226.304688 86.800781 226.105469 86.441406 225.863281 C 86.082031 225.625 85.75 225.351562 85.445312 225.046875 C 85.140625 224.738281 84.867188 224.40625 84.625 224.046875 C 84.386719 223.691406 84.183594 223.308594 84.019531 222.910156 C 83.855469 222.511719 83.730469 222.101562 83.644531 221.675781 C 83.558594 221.253906 83.519531 220.824219 83.519531 220.394531 L 83.519531 191.882812 C 83.519531 191.453125 83.558594 191.023438 83.644531 190.601562 C 83.730469 190.175781 83.855469 189.765625 84.019531 189.367188 C 84.183594 188.96875 84.386719 188.589844 84.628906 188.230469 C 84.867188 187.871094 85.140625 187.539062 85.445312 187.234375 C 85.75 186.925781 86.082031 186.652344 86.441406 186.414062 C 86.800781 186.175781 87.179688 185.972656 87.578125 185.804688 C 87.980469 185.640625 88.390625 185.515625 88.8125 185.433594 C 89.238281 185.347656 89.664062 185.304688 90.097656 185.304688 L 138.34375 185.304688 C 138.773438 185.304688 139.203125 185.347656 139.625 185.433594 C 140.050781 185.515625 140.460938 185.640625 140.859375 185.804688 C 141.261719 185.972656 141.640625 186.175781 142 186.414062 C 142.359375 186.652344 142.691406 186.925781 142.996094 187.234375 C 143.300781 187.539062 143.574219 187.871094 143.8125 188.230469 C 144.054688 188.589844 144.257812 188.96875 144.421875 189.367188 C 144.585938 189.765625 144.710938 190.175781 144.796875 190.601562 C 144.878906 191.023438 144.921875 191.453125 144.921875 191.882812 L 144.921875 220.394531 C 144.921875 220.824219 144.878906 221.253906 144.796875 221.675781 C 144.710938 222.101562 144.585938 222.511719 144.421875 222.910156 C 144.257812 223.308594 144.054688 223.691406 143.8125 224.046875 C 143.574219 224.40625 143.300781 224.738281 142.996094 225.046875 C 142.691406 225.351562 142.359375 225.625 142 225.863281 C 141.640625 226.105469 141.261719 226.304688 140.859375 226.472656 C 140.460938 226.636719 140.050781 226.761719 139.625 226.847656 C 139.203125 226.929688 138.773438 226.972656 138.34375 226.972656 L 122.792969 226.972656 L 115.601562 235.019531 C 115.167969 235.5 114.625 235.742188 113.980469 235.746094 Z M 90.097656 189.691406 C 89.804688 189.691406 89.527344 189.746094 89.257812 189.859375 C 88.988281 189.96875 88.753906 190.128906 88.546875 190.332031 C 88.339844 190.539062 88.183594 190.777344 88.070312 191.046875 C 87.960938 191.3125 87.902344 191.59375 87.902344 191.882812 L 87.902344 220.394531 C 87.902344 220.683594 87.960938 220.964844 88.070312 221.234375 C 88.183594 221.5 88.339844 221.738281 88.546875 221.945312 C 88.753906 222.148438 88.988281 222.308594 89.257812 222.417969 C 89.527344 222.53125 89.804688 222.585938 90.097656 222.585938 L 106.128906 222.585938 C 106.785156 222.582031 107.332031 222.824219 107.773438 223.308594 L 113.980469 230.261719 L 120.164062 223.308594 C 120.601562 222.824219 121.152344 222.582031 121.808594 222.585938 L 138.34375 222.585938 C 138.632812 222.585938 138.914062 222.53125 139.183594 222.417969 C 139.453125 222.308594 139.6875 222.148438 139.894531 221.945312 C 140.101562 221.738281 140.257812 221.5 140.371094 221.234375 C 140.480469 220.964844 140.535156 220.683594 140.535156 220.394531 L 140.535156 191.882812 C 140.535156 191.59375 140.480469 191.3125 140.371094 191.046875 C 140.257812 190.777344 140.101562 190.539062 139.894531 190.332031 C 139.6875 190.128906 139.453125 189.96875 139.183594 189.859375 C 138.914062 189.746094 138.632812 189.691406 138.34375 189.691406 Z M 90.097656 189.691406 " fill-opacity="1" fill-rule="nonzero"/><path fill="#e96311" d="M 114.21875 222.585938 C 113.210938 222.585938 112.214844 222.488281 111.226562 222.292969 C 110.238281 222.09375 109.277344 221.804688 108.34375 221.417969 C 107.414062 221.03125 106.53125 220.558594 105.691406 220 C 104.855469 219.441406 104.078125 218.804688 103.367188 218.089844 C 102.652344 217.378906 102.015625 216.601562 101.457031 215.765625 C 100.894531 214.925781 100.421875 214.042969 100.039062 213.109375 C 99.652344 212.179688 99.359375 211.21875 99.164062 210.230469 C 98.96875 209.242188 98.871094 208.242188 98.871094 207.234375 C 98.871094 206.226562 98.96875 205.230469 99.164062 204.242188 C 99.359375 203.253906 99.652344 202.292969 100.039062 201.359375 C 100.421875 200.429688 100.894531 199.546875 101.457031 198.707031 C 102.015625 197.867188 102.652344 197.09375 103.367188 196.378906 C 104.078125 195.667969 104.855469 195.03125 105.691406 194.472656 C 106.53125 193.910156 107.414062 193.4375 108.34375 193.054688 C 109.277344 192.667969 110.238281 192.375 111.226562 192.179688 C 112.214844 191.984375 113.210938 191.882812 114.21875 191.882812 C 115.226562 191.882812 116.226562 191.984375 117.214844 192.179688 C 118.203125 192.375 119.164062 192.667969 120.09375 193.054688 C 121.027344 193.4375 121.910156 193.910156 122.75 194.472656 C 123.585938 195.03125 124.363281 195.667969 125.074219 196.378906 C 125.789062 197.09375 126.425781 197.867188 126.984375 198.707031 C 127.542969 199.546875 128.015625 200.429688 128.402344 201.359375 C 128.789062 202.292969 129.078125 203.253906 129.277344 204.242188 C 129.472656 205.230469 129.570312 206.226562 129.570312 207.234375 C 129.570312 208.242188 129.472656 209.242188 129.277344 210.230469 C 129.078125 211.21875 128.789062 212.179688 128.402344 213.109375 C 128.015625 214.042969 127.542969 214.925781 126.984375 215.765625 C 126.425781 216.601562 125.789062 217.378906 125.074219 218.089844 C 124.363281 218.804688 123.585938 219.441406 122.75 220 C 121.910156 220.558594 121.027344 221.03125 120.09375 221.417969 C 119.164062 221.804688 118.203125 222.09375 117.214844 222.292969 C 116.226562 222.488281 115.226562 222.585938 114.21875 222.585938 Z M 114.21875 196.269531 C 113.5 196.269531 112.789062 196.339844 112.082031 196.480469 C 111.375 196.621094 110.6875 196.828125 110.023438 197.105469 C 109.359375 197.378906 108.726562 197.71875 108.128906 198.117188 C 107.53125 198.519531 106.976562 198.972656 106.46875 199.480469 C 105.957031 199.992188 105.503906 200.546875 105.101562 201.144531 C 104.703125 201.742188 104.367188 202.375 104.089844 203.039062 C 103.8125 203.703125 103.605469 204.390625 103.464844 205.097656 C 103.324219 205.800781 103.253906 206.515625 103.253906 207.234375 C 103.253906 207.957031 103.324219 208.667969 103.464844 209.375 C 103.605469 210.082031 103.8125 210.765625 104.089844 211.433594 C 104.367188 212.097656 104.703125 212.730469 105.101562 213.328125 C 105.503906 213.925781 105.957031 214.480469 106.46875 214.988281 C 106.976562 215.5 107.53125 215.953125 108.128906 216.351562 C 108.726562 216.753906 109.359375 217.089844 110.023438 217.367188 C 110.6875 217.640625 111.375 217.847656 112.082031 217.988281 C 112.789062 218.128906 113.5 218.199219 114.21875 218.199219 C 114.941406 218.199219 115.652344 218.128906 116.359375 217.988281 C 117.066406 217.847656 117.75 217.640625 118.417969 217.367188 C 119.082031 217.089844 119.714844 216.753906 120.3125 216.351562 C 120.910156 215.953125 121.464844 215.5 121.972656 214.988281 C 122.484375 214.480469 122.9375 213.925781 123.335938 213.328125 C 123.738281 212.730469 124.074219 212.097656 124.351562 211.433594 C 124.625 210.765625 124.835938 210.082031 124.972656 209.375 C 125.113281 208.667969 125.183594 207.957031 125.183594 207.234375 C 125.183594 206.515625 125.113281 205.800781 124.972656 205.097656 C 124.835938 204.390625 124.625 203.703125 124.351562 203.039062 C 124.074219 202.375 123.738281 201.742188 123.335938 201.144531 C 122.9375 200.546875 122.484375 199.992188 121.972656 199.480469 C 121.464844 198.972656 120.910156 198.519531 120.3125 198.117188 C 119.714844 197.71875 119.082031 197.378906 118.417969 197.105469 C 117.75 196.828125 117.066406 196.621094 116.359375 196.480469 C 115.652344 196.339844 114.941406 196.269531 114.21875 196.269531 Z M 114.21875 196.269531 " fill-opacity="1" fill-rule="nonzero"/><path fill="#e96311" d="M 114.21875 214.910156 C 113.789062 214.910156 113.359375 214.867188 112.9375 214.785156 C 112.511719 214.699219 112.101562 214.574219 111.703125 214.410156 C 111.304688 214.246094 110.925781 214.042969 110.566406 213.800781 C 110.207031 213.5625 109.875 213.289062 109.566406 212.984375 C 109.261719 212.679688 108.988281 212.347656 108.75 211.988281 C 108.511719 211.628906 108.308594 211.25 108.140625 210.851562 C 107.976562 210.449219 107.851562 210.039062 107.769531 209.617188 C 107.683594 209.191406 107.640625 208.765625 107.640625 208.332031 C 107.640625 208.042969 107.695312 207.761719 107.808594 207.492188 C 107.917969 207.222656 108.078125 206.988281 108.285156 206.78125 C 108.488281 206.574219 108.726562 206.417969 108.996094 206.304688 C 109.265625 206.195312 109.542969 206.140625 109.835938 206.140625 C 110.125 206.140625 110.40625 206.195312 110.671875 206.304688 C 110.941406 206.417969 111.179688 206.574219 111.386719 206.78125 C 111.589844 206.988281 111.75 207.222656 111.859375 207.492188 C 111.972656 207.761719 112.027344 208.042969 112.027344 208.332031 C 112.027344 208.621094 112.082031 208.902344 112.195312 209.171875 C 112.304688 209.441406 112.464844 209.675781 112.667969 209.882812 C 112.875 210.089844 113.113281 210.246094 113.382812 210.359375 C 113.648438 210.46875 113.929688 210.523438 114.21875 210.523438 C 114.511719 210.523438 114.789062 210.46875 115.058594 210.359375 C 115.328125 210.246094 115.566406 210.089844 115.769531 209.882812 C 115.976562 209.675781 116.136719 209.441406 116.246094 209.171875 C 116.359375 208.902344 116.414062 208.621094 116.414062 208.332031 C 116.414062 208.042969 116.46875 207.761719 116.582031 207.492188 C 116.691406 207.222656 116.851562 206.988281 117.054688 206.78125 C 117.261719 206.574219 117.5 206.417969 117.765625 206.304688 C 118.035156 206.195312 118.316406 206.140625 118.605469 206.140625 C 118.898438 206.140625 119.175781 206.195312 119.445312 206.304688 C 119.714844 206.417969 119.953125 206.574219 120.15625 206.78125 C 120.363281 206.988281 120.519531 207.222656 120.632812 207.492188 C 120.742188 207.761719 120.800781 208.042969 120.800781 208.332031 C 120.800781 208.765625 120.757812 209.191406 120.671875 209.617188 C 120.589844 210.039062 120.464844 210.449219 120.296875 210.851562 C 120.132812 211.25 119.929688 211.628906 119.691406 211.988281 C 119.449219 212.347656 119.179688 212.679688 118.871094 212.984375 C 118.566406 213.289062 118.234375 213.5625 117.875 213.800781 C 117.515625 214.042969 117.136719 214.246094 116.738281 214.410156 C 116.339844 214.574219 115.925781 214.699219 115.503906 214.785156 C 115.078125 214.867188 114.652344 214.910156 114.21875 214.910156 Z M 114.21875 214.910156 " fill-opacity="1" fill-rule="nonzero"/><g clip-path="url(#b1ffa6bb43)"><path fill="#e96311" d="M 78.890625 216.007812 C 78.242188 216.007812 77.703125 215.765625 77.269531 215.285156 L 70.054688 207.234375 L 55.007812 207.234375 C 54.578125 207.234375 54.148438 207.195312 53.726562 207.109375 C 53.300781 207.023438 52.890625 206.898438 52.492188 206.734375 C 52.09375 206.570312 51.714844 206.367188 51.355469 206.125 C 50.996094 205.886719 50.664062 205.613281 50.355469 205.308594 C 50.050781 205.003906 49.777344 204.671875 49.539062 204.3125 C 49.300781 203.953125 49.097656 203.574219 48.929688 203.175781 C 48.765625 202.773438 48.640625 202.363281 48.554688 201.941406 C 48.472656 201.515625 48.429688 201.089844 48.429688 200.65625 L 48.429688 172.148438 C 48.429688 171.714844 48.472656 171.289062 48.554688 170.863281 C 48.640625 170.441406 48.765625 170.027344 48.929688 169.628906 C 49.097656 169.230469 49.300781 168.851562 49.539062 168.492188 C 49.777344 168.132812 50.050781 167.800781 50.355469 167.496094 C 50.664062 167.191406 50.996094 166.917969 51.355469 166.675781 C 51.714844 166.4375 52.09375 166.234375 52.492188 166.070312 C 52.890625 165.902344 53.300781 165.777344 53.726562 165.695312 C 54.148438 165.609375 54.578125 165.570312 55.007812 165.570312 L 103.253906 165.570312 C 103.6875 165.570312 104.113281 165.609375 104.539062 165.695312 C 104.960938 165.777344 105.375 165.902344 105.773438 166.070312 C 106.171875 166.234375 106.550781 166.4375 106.910156 166.675781 C 107.269531 166.917969 107.601562 167.191406 107.90625 167.496094 C 108.210938 167.800781 108.484375 168.132812 108.726562 168.492188 C 108.964844 168.851562 109.167969 169.230469 109.332031 169.628906 C 109.5 170.027344 109.625 170.441406 109.707031 170.863281 C 109.792969 171.289062 109.835938 171.714844 109.835938 172.148438 L 109.835938 180.917969 C 109.835938 181.210938 109.777344 181.488281 109.667969 181.757812 C 109.554688 182.027344 109.398438 182.265625 109.191406 182.46875 C 108.984375 182.675781 108.75 182.835938 108.480469 182.945312 C 108.210938 183.058594 107.933594 183.113281 107.640625 183.113281 C 107.351562 183.113281 107.070312 183.058594 106.800781 182.945312 C 106.535156 182.835938 106.296875 182.675781 106.089844 182.46875 C 105.886719 182.265625 105.726562 182.027344 105.613281 181.757812 C 105.503906 181.488281 105.449219 181.210938 105.449219 180.917969 L 105.449219 172.148438 C 105.449219 171.855469 105.394531 171.578125 105.28125 171.308594 C 105.171875 171.039062 105.011719 170.800781 104.804688 170.597656 C 104.601562 170.390625 104.363281 170.234375 104.09375 170.121094 C 103.824219 170.011719 103.546875 169.953125 103.253906 169.953125 L 55.007812 169.953125 C 54.71875 169.953125 54.4375 170.011719 54.167969 170.121094 C 53.902344 170.234375 53.664062 170.390625 53.457031 170.597656 C 53.253906 170.800781 53.09375 171.039062 52.984375 171.308594 C 52.871094 171.578125 52.816406 171.855469 52.816406 172.148438 L 52.816406 200.65625 C 52.816406 200.949219 52.871094 201.226562 52.984375 201.496094 C 53.09375 201.765625 53.253906 202 53.457031 202.207031 C 53.664062 202.414062 53.902344 202.570312 54.167969 202.683594 C 54.4375 202.792969 54.71875 202.847656 55.007812 202.847656 L 71.039062 202.847656 C 71.695312 202.84375 72.246094 203.085938 72.683594 203.574219 L 80.535156 212.34375 C 80.730469 212.5625 80.878906 212.808594 80.976562 213.085938 C 81.074219 213.363281 81.113281 213.644531 81.097656 213.9375 C 81.082031 214.230469 81.007812 214.507812 80.882812 214.773438 C 80.753906 215.035156 80.578125 215.265625 80.359375 215.460938 C 79.941406 215.828125 79.449219 216.011719 78.890625 216.007812 Z M 78.890625 216.007812 " fill-opacity="1" fill-rule="nonzero"/></g><path fill="#e96311" d="M 120.800781 152.410156 L 92.289062 152.410156 C 92 152.410156 91.71875 152.355469 91.449219 152.242188 C 91.183594 152.132812 90.945312 151.972656 90.738281 151.769531 C 90.535156 151.5625 90.375 151.324219 90.265625 151.058594 C 90.152344 150.789062 90.097656 150.507812 90.097656 150.21875 C 90.097656 149.925781 90.152344 149.648438 90.265625 149.378906 C 90.375 149.109375 90.535156 148.871094 90.738281 148.667969 C 90.945312 148.460938 91.183594 148.300781 91.449219 148.191406 C 91.71875 148.082031 92 148.023438 92.289062 148.023438 L 120.800781 148.023438 C 121.089844 148.023438 121.371094 148.082031 121.636719 148.191406 C 121.90625 148.300781 122.144531 148.460938 122.351562 148.667969 C 122.554688 148.871094 122.714844 149.109375 122.824219 149.378906 C 122.9375 149.648438 122.992188 149.925781 122.992188 150.21875 C 122.992188 150.507812 122.9375 150.789062 122.824219 151.058594 C 122.714844 151.324219 122.554688 151.5625 122.351562 151.769531 C 122.144531 151.972656 121.90625 152.132812 121.636719 152.242188 C 121.371094 152.355469 121.089844 152.410156 120.800781 152.410156 Z M 120.800781 152.410156 " fill-opacity="1" fill-rule="nonzero"/><path fill="#e96311" d="M 109.835938 161.183594 L 92.289062 161.183594 C 92 161.183594 91.71875 161.125 91.449219 161.015625 C 91.183594 160.902344 90.945312 160.746094 90.738281 160.539062 C 90.535156 160.335938 90.375 160.097656 90.265625 159.828125 C 90.152344 159.558594 90.097656 159.28125 90.097656 158.988281 C 90.097656 158.699219 90.152344 158.417969 90.265625 158.148438 C 90.375 157.882812 90.535156 157.644531 90.738281 157.4375 C 90.945312 157.234375 91.183594 157.074219 91.449219 156.964844 C 91.71875 156.851562 92 156.796875 92.289062 156.796875 L 109.835938 156.796875 C 110.125 156.796875 110.40625 156.851562 110.671875 156.964844 C 110.941406 157.074219 111.179688 157.234375 111.386719 157.4375 C 111.589844 157.644531 111.75 157.882812 111.859375 158.148438 C 111.972656 158.417969 112.027344 158.699219 112.027344 158.988281 C 112.027344 159.28125 111.972656 159.558594 111.859375 159.828125 C 111.75 160.097656 111.589844 160.335938 111.386719 160.539062 C 111.179688 160.746094 110.941406 160.902344 110.671875 161.015625 C 110.40625 161.125 110.125 161.183594 109.835938 161.183594 Z M 109.835938 161.183594 " fill-opacity="1" fill-rule="nonzero"/><path fill="#e96311" d="M 79.132812 202.148438 C 78.523438 202.152344 78.007812 201.9375 77.574219 201.511719 L 68.363281 192.324219 C 62.574219 186.535156 63.144531 180.699219 66.171875 177.738281 C 69.199219 174.777344 73.867188 174.339844 79.132812 178.59375 C 80.394531 177.445312 81.839844 176.617188 83.46875 176.109375 C 85.101562 175.601562 86.761719 175.464844 88.453125 175.699219 C 89.648438 175.9375 90.71875 176.445312 91.660156 177.222656 C 92.601562 178 93.300781 178.953125 93.757812 180.085938 C 93.867188 180.355469 93.917969 180.636719 93.914062 180.929688 C 93.910156 181.21875 93.851562 181.5 93.738281 181.765625 C 93.621094 182.035156 93.460938 182.269531 93.25 182.472656 C 93.042969 182.675781 92.800781 182.828125 92.53125 182.9375 C 92.261719 183.046875 91.980469 183.097656 91.6875 183.09375 C 91.398438 183.089844 91.117188 183.03125 90.851562 182.914062 C 90.582031 182.800781 90.347656 182.636719 90.144531 182.429688 C 89.941406 182.21875 89.789062 181.980469 89.679688 181.707031 C 89.496094 181.246094 89.207031 180.859375 88.816406 180.550781 C 88.421875 180.242188 87.980469 180.050781 87.488281 179.976562 C 86.167969 179.933594 84.90625 180.1875 83.707031 180.738281 C 82.507812 181.292969 81.496094 182.082031 80.667969 183.113281 C 80.460938 183.320312 80.222656 183.480469 79.953125 183.59375 C 79.683594 183.703125 79.402344 183.761719 79.109375 183.761719 C 78.816406 183.761719 78.535156 183.703125 78.265625 183.59375 C 77.996094 183.480469 77.757812 183.320312 77.554688 183.113281 C 74.066406 179.625 70.710938 179.339844 69.199219 180.917969 C 67.683594 182.5 67.96875 185.789062 71.390625 189.273438 L 80.667969 198.464844 C 80.875 198.667969 81.035156 198.90625 81.148438 199.175781 C 81.257812 199.445312 81.316406 199.726562 81.316406 200.019531 C 81.316406 200.3125 81.257812 200.59375 81.148438 200.863281 C 81.035156 201.132812 80.875 201.371094 80.667969 201.578125 C 80.230469 201.972656 79.71875 202.164062 79.132812 202.148438 Z M 79.132812 202.148438 " fill-opacity="1" fill-rule="nonzero"/><g fill="#000000" fill-opacity="1"><g transform="translate(155.433172, 164.808359)"><g><path d="M 1.84375 -0.765625 L 2.0625 -0.265625 L 2.53125 0.03125 L 3.34375 -0.046875 L 4.078125 0.03125 L 7.640625 -0.03125 L 8.125 0.046875 L 10.65625 -0.078125 L 11.09375 -0.140625 L 12.46875 -0.546875 L 12.90625 -0.765625 L 13.890625 -1.546875 L 14.5625 -2.453125 L 14.796875 -2.953125 L 14.953125 -3.40625 L 15.140625 -3.875 L 15.1875 -5.859375 L 14.921875 -6.75 L 14.484375 -7.75 L 14.15625 -8.125 L 13.765625 -8.46875 L 13.53125 -9.03125 L 13.703125 -9.5 L 14.15625 -10.453125 L 14.453125 -11.34375 L 14.484375 -12.171875 L 14.4375 -12.9375 L 14.234375 -13.8125 L 14.0625 -14.328125 L 13.25 -15.46875 L 12.890625 -15.8125 L 12.515625 -16.046875 L 12.171875 -16.328125 L 11.765625 -16.5625 L 11.296875 -16.796875 L 10.875 -16.9375 L 9.921875 -17.15625 L 7.390625 -17.234375 L 6.953125 -17.140625 L 5.984375 -17.25 L 5.546875 -17.15625 L 2.578125 -17.203125 L 2.03125 -16.96875 L 1.796875 -16.453125 L 1.796875 -15.90625 L 1.84375 -15.46875 L 1.8125 -14.953125 L 1.84375 -14.5 L 1.796875 -13.0625 L 1.859375 -12.03125 L 1.765625 -7.34375 L 1.84375 -6.609375 L 1.796875 -1.234375 Z M 6.875 -10.484375 L 6.359375 -10.78125 L 6.09375 -11.46875 L 6.0625 -12.296875 L 6.359375 -13.015625 L 6.828125 -13.296875 L 9.359375 -13.125 L 9.75 -12.9375 L 9.9375 -12.546875 L 10.015625 -11.8125 L 9.84375 -11.09375 L 9.46875 -10.796875 L 8.765625 -10.5625 Z M 6.796875 -3.921875 L 6.359375 -4.09375 L 6.03125 -4.59375 L 6.109375 -6.0625 L 6.328125 -6.484375 L 6.75 -6.796875 L 7.21875 -6.71875 L 7.734375 -6.78125 L 10.046875 -6.546875 L 10.453125 -6.375 L 10.703125 -5.9375 L 10.84375 -5.328125 L 10.734375 -4.609375 L 10.453125 -4.265625 L 10.046875 -4 L 8.6875 -3.875 Z M 6.796875 -3.921875 "/></g></g></g><g fill="#000000" fill-opacity="1"><g transform="translate(174.028567, 164.808359)"><g><path d="M 8.4375 0.3125 L 9.1875 0.25 L 9.640625 0.265625 L 11.5625 -0.21875 L 12.4375 -0.6875 L 13.25 -1.234375 L 13.9375 -1.921875 L 14.5 -2.78125 L 14.65625 -3.265625 L 14.90625 -3.6875 L 15.125 -4.71875 L 15.25 -5.890625 L 15.25 -12.515625 L 15.1875 -12.984375 L 15.25 -13.53125 L 15.1875 -13.921875 L 15.1875 -15.953125 L 15.265625 -16.453125 L 14.953125 -16.96875 L 14.40625 -17.140625 L 12.859375 -17.078125 L 11.828125 -17.15625 L 11.3125 -16.90625 L 11.046875 -16.375 L 11.09375 -6.703125 L 10.921875 -5.171875 L 10.78125 -4.8125 L 10.5 -4.3125 L 10.09375 -4.03125 L 9.234375 -3.703125 L 7.75 -3.703125 L 7.1875 -3.828125 L 6.78125 -4.078125 L 6.375 -4.375 L 6.09375 -4.765625 L 5.9375 -5.234375 L 5.796875 -6.65625 L 5.859375 -14.5625 L 5.8125 -14.921875 L 5.859375 -15.703125 L 5.8125 -16.421875 L 5.515625 -16.96875 L 5 -17.1875 L 4.546875 -17.1875 L 4.046875 -17.109375 L 3 -17.203125 L 2.484375 -17.140625 L 1.96875 -16.9375 L 1.640625 -16.46875 L 1.6875 -15.984375 L 1.6875 -15.390625 L 1.640625 -15 L 1.71875 -11.5625 L 1.640625 -11.078125 L 1.6875 -10.609375 L 1.625 -6.65625 L 1.765625 -4.6875 L 2.015625 -3.6875 L 2.40625 -2.84375 L 2.96875 -1.96875 L 3.265625 -1.625 L 3.640625 -1.296875 L 4.421875 -0.78125 L 4.90625 -0.5625 L 5.28125 -0.34375 L 6.203125 0.078125 L 7.171875 0.265625 L 7.65625 0.265625 Z M 8.4375 0.3125 "/></g></g></g><g fill="#000000" fill-opacity="1"><g transform="translate(193.359857, 164.808359)"><g><path d="M 1.796875 -0.71875 L 2.03125 -0.25 L 2.578125 0 L 4.296875 0.078125 L 5.515625 -0.03125 L 6.03125 -0.25 L 6.328125 -0.984375 L 6.265625 -1.765625 L 6.3125 -2.234375 L 6.28125 -4.828125 L 6.5 -5.328125 L 7 -5.546875 L 7.53125 -5.59375 L 8.046875 -5.5 L 8.546875 -5.59375 L 9.03125 -5.546875 L 9.546875 -5.578125 L 10.046875 -5.515625 L 11.046875 -5.578125 L 11.5625 -5.8125 L 11.8125 -6.578125 L 11.78125 -8.765625 L 11.53125 -9.25 L 11.015625 -9.453125 L 9.8125 -9.5 L 8.515625 -9.40625 L 7.5625 -9.53125 L 7.015625 -9.5 L 6.53125 -9.703125 L 6.265625 -10.21875 L 6.265625 -10.90625 L 6.3125 -11.359375 L 6.265625 -12.46875 L 6.5 -12.953125 L 6.96875 -13.28125 L 7.75 -13.28125 L 8.46875 -13.234375 L 8.90625 -13.25 L 9.40625 -13.234375 L 9.921875 -13.28125 L 11.78125 -13.234375 L 12.265625 -13.46875 L 12.515625 -13.96875 L 12.46875 -15.21875 L 12.515625 -16.15625 L 12.21875 -16.890625 L 11.8125 -17.15625 L 10.328125 -17.140625 L 9.796875 -17.203125 L 8.84375 -17.15625 L 8.390625 -17.203125 L 7.65625 -17.15625 L 7.171875 -17.1875 L 6.40625 -17.140625 L 5.453125 -17.140625 L 5 -17.1875 L 3.75 -17.1875 L 3.234375 -17.140625 L 2.546875 -17.15625 L 2.015625 -16.890625 L 1.859375 -16.453125 L 1.796875 -15.4375 L 1.859375 -14.703125 L 1.765625 -11.953125 L 1.8125 -11.53125 L 1.84375 -11.015625 L 1.796875 -10.578125 L 1.84375 -10.015625 L 1.796875 -9.578125 L 1.765625 -9.109375 L 1.8125 -8.640625 L 1.765625 -8.078125 Z M 1.796875 -0.71875 "/></g></g></g><g fill="#000000" fill-opacity="1"><g transform="translate(209.134302, 164.808359)"><g><path d="M 1.796875 -0.71875 L 2.03125 -0.25 L 2.578125 0 L 4.296875 0.078125 L 5.515625 -0.03125 L 6.03125 -0.25 L 6.328125 -0.984375 L 6.265625 -1.765625 L 6.3125 -2.234375 L 6.28125 -4.828125 L 6.5 -5.328125 L 7 -5.546875 L 7.53125 -5.59375 L 8.046875 -5.5 L 8.546875 -5.59375 L 9.03125 -5.546875 L 9.546875 -5.578125 L 10.046875 -5.515625 L 11.046875 -5.578125 L 11.5625 -5.8125 L 11.8125 -6.578125 L 11.78125 -8.765625 L 11.53125 -9.25 L 11.015625 -9.453125 L 9.8125 -9.5 L 8.515625 -9.40625 L 7.5625 -9.53125 L 7.015625 -9.5 L 6.53125 -9.703125 L 6.265625 -10.21875 L 6.265625 -10.90625 L 6.3125 -11.359375 L 6.265625 -12.46875 L 6.5 -12.953125 L 6.96875 -13.28125 L 7.75 -13.28125 L 8.46875 -13.234375 L 8.90625 -13.25 L 9.40625 -13.234375 L 9.921875 -13.28125 L 11.78125 -13.234375 L 12.265625 -13.46875 L 12.515625 -13.96875 L 12.46875 -15.21875 L 12.515625 -16.15625 L 12.21875 -16.890625 L 11.8125 -17.15625 L 10.328125 -17.140625 L 9.796875 -17.203125 L 8.84375 -17.15625 L 8.390625 -17.203125 L 7.65625 -17.15625 L 7.171875 -17.1875 L 6.40625 -17.140625 L 5.453125 -17.140625 L 5 -17.1875 L 3.75 -17.1875 L 3.234375 -17.140625 L 2.546875 -17.15625 L 2.015625 -16.890625 L 1.859375 -16.453125 L 1.796875 -15.4375 L 1.859375 -14.703125 L 1.765625 -11.953125 L 1.8125 -11.53125 L 1.84375 -11.015625 L 1.796875 -10.578125 L 1.84375 -10.015625 L 1.796875 -9.578125 L 1.765625 -9.109375 L 1.8125 -8.640625 L 1.765625 -8.078125 Z M 1.796875 -0.71875 "/></g></g></g><g fill="#000000" fill-opacity="1"><g transform="translate(155.433172, 190.395947)"><g><path d="M 8.4375 0.21875 L 9.03125 0.03125 L 9.578125 -0.6875 L 9.890625 -1.375 L 10.046875 -1.890625 L 10.5 -2.671875 L 10.65625 -3.171875 L 10.90625 -3.6875 L 11.046875 -4.09375 L 11.3125 -4.546875 L 12.265625 -6.78125 L 12.4375 -7.3125 L 12.890625 -8.09375 L 15.015625 -13.15625 L 15.265625 -13.59375 L 15.6875 -14.484375 L 15.8125 -14.953125 L 16.28125 -15.8125 L 16.453125 -16.46875 L 16.328125 -16.984375 L 15.875 -17.078125 L 15.359375 -17.140625 L 14.921875 -17.203125 L 14.453125 -17.15625 L 13.96875 -17.140625 L 13.03125 -17.234375 L 12.5 -16.90625 L 12.078125 -16.5 L 9.796875 -11.09375 L 9.640625 -10.578125 L 9.421875 -10.15625 L 9.328125 -9.71875 L 9.078125 -9.28125 L 8.59375 -7.90625 L 8.34375 -7.46875 L 8.078125 -7.515625 L 7.46875 -8.84375 L 7.359375 -9.296875 L 6.953125 -10.140625 L 5.71875 -13.328125 L 5.078125 -14.625 L 4.390625 -16.5 L 3.984375 -16.90625 L 3.40625 -17.15625 L 2.015625 -17.203125 L 1.515625 -17.140625 L 0.59375 -17.140625 L 0.203125 -16.96875 L 0 -16.46875 L 0.78125 -14.390625 L 1.03125 -14.015625 L 1.15625 -13.546875 L 1.34375 -13.0625 L 1.625 -12.6875 L 1.796875 -12.171875 L 4 -7.21875 L 4.140625 -6.71875 L 4.765625 -5.453125 L 4.9375 -4.9375 L 5.34375 -4.09375 L 5.625 -3.65625 L 5.75 -3.171875 L 6.71875 -0.828125 L 6.953125 -0.46875 L 7.4375 -0.046875 L 7.984375 0.140625 Z M 8.4375 0.21875 "/></g></g></g><g fill="#000000" fill-opacity="1"><g transform="translate(174.371986, 190.395947)"><g><path d="M 8.21875 0.09375 L 9.203125 0.046875 L 9.640625 -0.203125 L 9.890625 -0.65625 L 9.890625 -3.09375 L 9.59375 -3.5625 L 9.0625 -3.828125 L 8.546875 -3.828125 L 7.953125 -4.03125 L 7.65625 -4.59375 L 7.734375 -5.0625 L 7.703125 -7.75 L 7.75 -8.296875 L 7.65625 -10.0625 L 7.75 -12.546875 L 7.921875 -13.109375 L 8.46875 -13.328125 L 8.953125 -13.40625 L 9.46875 -13.59375 L 9.71875 -13.984375 L 9.75 -16.421875 L 9.453125 -16.890625 L 9.015625 -17.15625 L 6.03125 -17.15625 L 5.59375 -17.203125 L 5.109375 -17.109375 L 3.09375 -17.109375 L 2.625 -17.1875 L 2.0625 -17.1875 L 1.578125 -16.9375 L 1.328125 -16.34375 L 1.40625 -14.53125 L 1.34375 -14.0625 L 1.625 -13.578125 L 2.15625 -13.296875 L 2.65625 -13.296875 L 3.125 -13.015625 L 3.34375 -12.34375 L 3.40625 -4.8125 L 3.140625 -4.078125 L 1.515625 -3.578125 L 1.25 -3.140625 L 1.171875 -0.890625 L 1.421875 -0.21875 L 1.921875 0 L 2.375 0 L 2.84375 -0.046875 L 3.5625 0.046875 L 4.3125 0.03125 L 4.8125 -0.03125 L 5.796875 0.078125 L 6.53125 -0.03125 L 7.734375 -0.03125 Z M 8.21875 0.09375 "/></g></g></g><g fill="#000000" fill-opacity="1"><g transform="translate(187.914212, 190.395947)"><g><path d="M 8.546875 0.078125 L 12.046875 0.03125 L 12.5625 -0.203125 L 12.84375 -0.71875 L 12.84375 -3.1875 L 12.5625 -3.6875 L 12.046875 -3.90625 L 11.484375 -3.859375 L 11.015625 -3.921875 L 9.765625 -3.953125 L 8.953125 -3.859375 L 8.46875 -3.90625 L 7.921875 -3.875 L 7.46875 -3.953125 L 6.921875 -3.90625 L 6.40625 -4.140625 L 6.203125 -4.59375 L 6.203125 -6.140625 L 6.4375 -6.65625 L 6.875 -6.921875 L 7.609375 -6.953125 L 8.390625 -6.875 L 9.328125 -6.921875 L 10.328125 -6.890625 L 10.828125 -6.953125 L 11.390625 -6.921875 L 11.875 -7.125 L 12.046875 -7.609375 L 12.125 -9.8125 L 11.875 -10.5 L 11.3125 -10.828125 L 9.875 -10.828125 L 9.359375 -10.78125 L 8.328125 -10.84375 L 6.890625 -10.796875 L 6.375 -11.015625 L 6.1875 -11.78125 L 6.1875 -12.546875 L 6.40625 -13.015625 L 6.953125 -13.203125 L 7.40625 -13.1875 L 7.875 -13.28125 L 11.390625 -13.234375 L 11.859375 -13.25 L 12.375 -13.546875 L 12.609375 -13.984375 L 12.59375 -14.484375 L 12.609375 -14.96875 L 12.5625 -16.453125 L 12.34375 -16.90625 L 11.859375 -17.109375 L 11.34375 -17.109375 L 10.90625 -17.203125 L 8.90625 -17.1875 L 8.375 -17.140625 L 7.875 -17.1875 L 7.46875 -17.15625 L 6.96875 -17.203125 L 4.953125 -17.15625 L 4.46875 -17.234375 L 4 -17.140625 L 3.5625 -17.1875 L 3.0625 -17.140625 L 2.578125 -17.15625 L 2.0625 -16.96875 L 1.796875 -16.453125 L 1.84375 -15.515625 L 1.765625 -14.5 L 1.84375 -13.96875 L 1.796875 -11.5625 L 1.859375 -11.046875 L 1.8125 -10.578125 L 1.796875 -8.5625 L 1.859375 -8.125 L 1.84375 -4.140625 L 1.796875 -3.6875 L 1.859375 -3.1875 L 1.796875 -1.5 L 1.84375 -0.953125 L 2.03125 -0.296875 L 2.78125 0.03125 L 4.546875 0.046875 L 5.078125 0 L 5.515625 0.03125 L 6.53125 -0.046875 L 7 0.046875 L 7.5625 0.078125 L 8.046875 0.03125 Z M 8.546875 0.078125 "/></g></g></g><g fill="#000000" fill-opacity="1"><g transform="translate(204.375496, 190.395947)"><g><path d="M 6.015625 -0.546875 L 6.40625 -0.09375 L 6.953125 0.21875 L 7.875 0.203125 L 8.421875 0 L 8.8125 -0.515625 L 9.03125 -0.9375 L 9.1875 -1.46875 L 9.421875 -1.921875 L 9.546875 -2.328125 L 9.765625 -2.84375 L 9.890625 -3.234375 L 10.65625 -5.0625 L 10.796875 -5.578125 L 11.25 -6.5 L 11.5625 -7.46875 L 11.8125 -7.390625 L 12.046875 -6.96875 L 12.203125 -6.453125 L 12.609375 -5.625 L 14.015625 -1.84375 L 14.390625 -1.03125 L 14.53125 -0.5625 L 15 -0.046875 L 15.5625 0.25 L 16.03125 0.21875 L 16.453125 0.140625 L 17.03125 -0.046875 L 17.40625 -0.484375 L 17.546875 -0.953125 L 17.765625 -1.40625 L 19.25 -5.671875 L 19.46875 -6.09375 L 20.28125 -8.171875 L 20.46875 -8.859375 L 20.6875 -9.296875 L 20.796875 -9.71875 L 22.359375 -13.890625 L 22.484375 -14.4375 L 22.734375 -14.875 L 23.203125 -16.375 L 23.046875 -16.96875 L 22.5625 -17.078125 L 22.0625 -17.15625 L 21.203125 -17.109375 L 20.234375 -17.15625 L 19.71875 -17.109375 L 19.25 -17.1875 L 18.734375 -16.9375 L 18.3125 -16.421875 L 18.1875 -15.953125 L 17.96875 -15.53125 L 16.625 -11.21875 L 16.515625 -10.734375 L 16.203125 -9.703125 L 16.03125 -8.671875 L 15.875 -8.203125 L 15.640625 -8.21875 L 15.140625 -9.625 L 15.015625 -10.109375 L 13.96875 -12.890625 L 13.71875 -13.8125 L 13.53125 -14.28125 L 13.234375 -15.265625 L 13.03125 -15.6875 L 12.84375 -16.125 L 12.5 -16.625 L 11.984375 -16.90625 L 11.4375 -16.90625 L 10.953125 -16.671875 L 10.53125 -16.171875 L 9.71875 -13.75 L 9.359375 -12.859375 L 8.46875 -10.015625 L 8.21875 -9.640625 L 8.125 -9.125 L 7.75 -8.203125 L 7.5625 -8.171875 L 7.46875 -8.765625 L 5.890625 -14.109375 L 5.6875 -14.53125 L 5.40625 -15.484375 L 5.296875 -15.984375 L 5.109375 -16.46875 L 4.65625 -16.859375 L 4.203125 -17.078125 L 2.234375 -17.109375 L 1.796875 -17.203125 L 1.34375 -17.140625 L 0.828125 -17.109375 L 0.3125 -16.96875 L 0.21875 -16.390625 L 0.34375 -15.734375 L 1.375 -12.9375 L 1.59375 -12.515625 L 2.609375 -9.765625 L 2.75 -9.234375 L 3.4375 -7.390625 L 3.65625 -7 L 5.640625 -1.421875 L 5.859375 -0.953125 Z M 6.015625 -0.546875 "/></g></g></g><g fill="#000000" fill-opacity="1"><g transform="translate(155.433172, 215.983534)"><g><path d="M 1.796875 -0.71875 L 2.03125 -0.25 L 2.578125 0 L 4.296875 0.078125 L 5.515625 -0.03125 L 6.03125 -0.25 L 6.328125 -0.984375 L 6.265625 -1.765625 L 6.3125 -2.234375 L 6.28125 -4.828125 L 6.5 -5.328125 L 7 -5.546875 L 7.53125 -5.59375 L 8.046875 -5.5 L 8.546875 -5.59375 L 9.03125 -5.546875 L 9.546875 -5.578125 L 10.046875 -5.515625 L 11.046875 -5.578125 L 11.5625 -5.8125 L 11.8125 -6.578125 L 11.78125 -8.765625 L 11.53125 -9.25 L 11.015625 -9.453125 L 9.8125 -9.5 L 8.515625 -9.40625 L 7.5625 -9.53125 L 7.015625 -9.5 L 6.53125 -9.703125 L 6.265625 -10.21875 L 6.265625 -10.90625 L 6.3125 -11.359375 L 6.265625 -12.46875 L 6.5 -12.953125 L 6.96875 -13.28125 L 7.75 -13.28125 L 8.46875 -13.234375 L 8.90625 -13.25 L 9.40625 -13.234375 L 9.921875 -13.28125 L 11.78125 -13.234375 L 12.265625 -13.46875 L 12.515625 -13.96875 L 12.46875 -15.21875 L 12.515625 -16.15625 L 12.21875 -16.890625 L 11.8125 -17.15625 L 10.328125 -17.140625 L 9.796875 -17.203125 L 8.84375 -17.15625 L 8.390625 -17.203125 L 7.65625 -17.15625 L 7.171875 -17.1875 L 6.40625 -17.140625 L 5.453125 -17.140625 L 5 -17.1875 L 3.75 -17.1875 L 3.234375 -17.140625 L 2.546875 -17.15625 L 2.015625 -16.890625 L 1.859375 -16.453125 L 1.796875 -15.4375 L 1.859375 -14.703125 L 1.765625 -11.953125 L 1.8125 -11.53125 L 1.84375 -11.015625 L 1.796875 -10.578125 L 1.84375 -10.015625 L 1.796875 -9.578125 L 1.765625 -9.109375 L 1.8125 -8.640625 L 1.765625 -8.078125 Z M 1.796875 -0.71875 "/></g></g></g><g fill="#000000" fill-opacity="1"><g transform="translate(171.207618, 215.983534)"><g><path d="M 9.84375 0.3125 L 12.03125 0.09375 L 12.953125 -0.203125 L 15.140625 -1.171875 L 16.859375 -2.828125 L 17.1875 -3.265625 L 18.140625 -4.953125 L 18.3125 -5.421875 L 18.390625 -5.921875 L 18.53125 -6.3125 L 18.625 -6.84375 L 18.75 -8.5625 L 18.625 -10.265625 L 18.4375 -11.171875 L 18.234375 -11.6875 L 18.109375 -12.25 L 17.671875 -13.0625 L 17.5 -13.5 L 17.1875 -13.921875 L 16.890625 -14.21875 L 16.5625 -14.65625 L 15.515625 -15.609375 L 14.265625 -16.390625 L 11.046875 -17.40625 L 9.890625 -17.421875 L 8.171875 -17.328125 L 7.6875 -17.234375 L 7.1875 -17.078125 L 6.75 -16.890625 L 5.8125 -16.640625 L 4.5625 -15.859375 L 4.21875 -15.5625 L 3.4375 -15.015625 L 2.78125 -14.28125 L 1.9375 -13.0625 L 1.71875 -12.640625 L 1.25 -11.296875 L 1.0625 -10.234375 L 0.953125 -7.390625 L 1.234375 -5.84375 L 1.59375 -5 L 1.75 -4.484375 L 1.984375 -4.046875 L 3.140625 -2.484375 L 3.828125 -1.8125 L 4.140625 -1.453125 L 5.8125 -0.5625 L 6.28125 -0.375 L 8.375 0.25 Z M 9.15625 -4 L 8.671875 -4.171875 L 8.21875 -4.21875 L 7.390625 -4.65625 L 6.625 -5.328125 L 6.375 -5.671875 L 6.0625 -6.015625 L 5.59375 -7.390625 L 5.46875 -8.609375 L 5.5 -9.359375 L 5.671875 -10.265625 L 5.8125 -10.703125 L 6.109375 -11.046875 L 6.328125 -11.46875 L 6.65625 -11.859375 L 7.015625 -12.171875 L 7.734375 -12.671875 L 8.171875 -12.890625 L 8.6875 -13.015625 L 9.8125 -13.109375 L 11 -13.03125 L 12.296875 -12.46875 L 13.0625 -11.90625 L 13.625 -11.078125 L 13.8125 -10.625 L 13.96875 -10.140625 L 14.140625 -9.703125 L 14.234375 -8.640625 L 14.09375 -7.40625 L 13.875 -6.40625 L 13.59375 -6.03125 L 13.375 -5.671875 L 13.078125 -5.234375 L 12.328125 -4.640625 L 11.875 -4.4375 L 11.484375 -4.21875 L 11.046875 -4.171875 L 10.578125 -4.046875 Z M 9.15625 -4 "/></g></g></g><g fill="#000000" fill-opacity="1"><g transform="translate(193.286265, 215.983534)"><g><path d="M 1.859375 -0.890625 L 2.03125 -0.25 L 2.5 0 L 3 0.046875 L 4.03125 -0.03125 L 4.984375 0.03125 L 5.921875 -0.03125 L 6.375 0.046875 L 6.921875 0 L 11.78125 0.03125 L 12.25 -0.21875 L 12.515625 -0.984375 L 12.5 -2.96875 L 12.265625 -3.703125 L 11.828125 -4 L 11.3125 -3.953125 L 10.84375 -3.859375 L 10.328125 -3.921875 L 9.328125 -3.90625 L 8.84375 -4 L 8.390625 -3.921875 L 7.4375 -3.984375 L 6.921875 -3.921875 L 6.4375 -4.125 L 6.234375 -4.609375 L 6.265625 -12.9375 L 6.203125 -13.53125 L 6.265625 -14.5 L 6.1875 -15.90625 L 6.203125 -16.375 L 5.96875 -16.90625 L 5.46875 -17.203125 L 4.515625 -17.203125 L 4.03125 -17.109375 L 3.046875 -17.203125 L 2.578125 -17.140625 L 2.0625 -16.9375 L 1.84375 -16.390625 L 1.84375 -12.953125 L 1.796875 -12.5 L 1.84375 -12 L 1.765625 -11.09375 L 1.796875 -10.5625 L 1.84375 -10.09375 Z M 1.859375 -0.890625 "/></g></g></g><g fill="#000000" fill-opacity="1"><g transform="translate(208.889007, 215.983534)"><g><path d="M 1.859375 -0.890625 L 2.03125 -0.25 L 2.5 0 L 3 0.046875 L 4.03125 -0.03125 L 4.984375 0.03125 L 5.921875 -0.03125 L 6.375 0.046875 L 6.921875 0 L 11.78125 0.03125 L 12.25 -0.21875 L 12.515625 -0.984375 L 12.5 -2.96875 L 12.265625 -3.703125 L 11.828125 -4 L 11.3125 -3.953125 L 10.84375 -3.859375 L 10.328125 -3.921875 L 9.328125 -3.90625 L 8.84375 -4 L 8.390625 -3.921875 L 7.4375 -3.984375 L 6.921875 -3.921875 L 6.4375 -4.125 L 6.234375 -4.609375 L 6.265625 -12.9375 L 6.203125 -13.53125 L 6.265625 -14.5 L 6.1875 -15.90625 L 6.203125 -16.375 L 5.96875 -16.90625 L 5.46875 -17.203125 L 4.515625 -17.203125 L 4.03125 -17.109375 L 3.046875 -17.203125 L 2.578125 -17.140625 L 2.0625 -16.9375 L 1.84375 -16.390625 L 1.84375 -12.953125 L 1.796875 -12.5 L 1.84375 -12 L 1.765625 -11.09375 L 1.796875 -10.5625 L 1.84375 -10.09375 Z M 1.859375 -0.890625 "/></g></g></g><g fill="#000000" fill-opacity="1"><g transform="translate(224.491752, 215.983534)"><g><path d="M 9.84375 0.3125 L 12.03125 0.09375 L 12.953125 -0.203125 L 15.140625 -1.171875 L 16.859375 -2.828125 L 17.1875 -3.265625 L 18.140625 -4.953125 L 18.3125 -5.421875 L 18.390625 -5.921875 L 18.53125 -6.3125 L 18.625 -6.84375 L 18.75 -8.5625 L 18.625 -10.265625 L 18.4375 -11.171875 L 18.234375 -11.6875 L 18.109375 -12.25 L 17.671875 -13.0625 L 17.5 -13.5 L 17.1875 -13.921875 L 16.890625 -14.21875 L 16.5625 -14.65625 L 15.515625 -15.609375 L 14.265625 -16.390625 L 11.046875 -17.40625 L 9.890625 -17.421875 L 8.171875 -17.328125 L 7.6875 -17.234375 L 7.1875 -17.078125 L 6.75 -16.890625 L 5.8125 -16.640625 L 4.5625 -15.859375 L 4.21875 -15.5625 L 3.4375 -15.015625 L 2.78125 -14.28125 L 1.9375 -13.0625 L 1.71875 -12.640625 L 1.25 -11.296875 L 1.0625 -10.234375 L 0.953125 -7.390625 L 1.234375 -5.84375 L 1.59375 -5 L 1.75 -4.484375 L 1.984375 -4.046875 L 3.140625 -2.484375 L 3.828125 -1.8125 L 4.140625 -1.453125 L 5.8125 -0.5625 L 6.28125 -0.375 L 8.375 0.25 Z M 9.15625 -4 L 8.671875 -4.171875 L 8.21875 -4.21875 L 7.390625 -4.65625 L 6.625 -5.328125 L 6.375 -5.671875 L 6.0625 -6.015625 L 5.59375 -7.390625 L 5.46875 -8.609375 L 5.5 -9.359375 L 5.671875 -10.265625 L 5.8125 -10.703125 L 6.109375 -11.046875 L 6.328125 -11.46875 L 6.65625 -11.859375 L 7.015625 -12.171875 L 7.734375 -12.671875 L 8.171875 -12.890625 L 8.6875 -13.015625 L 9.8125 -13.109375 L 11 -13.03125 L 12.296875 -12.46875 L 13.0625 -11.90625 L 13.625 -11.078125 L 13.8125 -10.625 L 13.96875 -10.140625 L 14.140625 -9.703125 L 14.234375 -8.640625 L 14.09375 -7.40625 L 13.875 -6.40625 L 13.59375 -6.03125 L 13.375 -5.671875 L 13.078125 -5.234375 L 12.328125 -4.640625 L 11.875 -4.4375 L 11.484375 -4.21875 L 11.046875 -4.171875 L 10.578125 -4.046875 Z M 9.15625 -4 "/></g></g></g><g fill="#000000" fill-opacity="1"><g transform="translate(246.570401, 215.983534)"><g><path d="M 6.015625 -0.546875 L 6.40625 -0.09375 L 6.953125 0.21875 L 7.875 0.203125 L 8.421875 0 L 8.8125 -0.515625 L 9.03125 -0.9375 L 9.1875 -1.46875 L 9.421875 -1.921875 L 9.546875 -2.328125 L 9.765625 -2.84375 L 9.890625 -3.234375 L 10.65625 -5.0625 L 10.796875 -5.578125 L 11.25 -6.5 L 11.5625 -7.46875 L 11.8125 -7.390625 L 12.046875 -6.96875 L 12.203125 -6.453125 L 12.609375 -5.625 L 14.015625 -1.84375 L 14.390625 -1.03125 L 14.53125 -0.5625 L 15 -0.046875 L 15.5625 0.25 L 16.03125 0.21875 L 16.453125 0.140625 L 17.03125 -0.046875 L 17.40625 -0.484375 L 17.546875 -0.953125 L 17.765625 -1.40625 L 19.25 -5.671875 L 19.46875 -6.09375 L 20.28125 -8.171875 L 20.46875 -8.859375 L 20.6875 -9.296875 L 20.796875 -9.71875 L 22.359375 -13.890625 L 22.484375 -14.4375 L 22.734375 -14.875 L 23.203125 -16.375 L 23.046875 -16.96875 L 22.5625 -17.078125 L 22.0625 -17.15625 L 21.203125 -17.109375 L 20.234375 -17.15625 L 19.71875 -17.109375 L 19.25 -17.1875 L 18.734375 -16.9375 L 18.3125 -16.421875 L 18.1875 -15.953125 L 17.96875 -15.53125 L 16.625 -11.21875 L 16.515625 -10.734375 L 16.203125 -9.703125 L 16.03125 -8.671875 L 15.875 -8.203125 L 15.640625 -8.21875 L 15.140625 -9.625 L 15.015625 -10.109375 L 13.96875 -12.890625 L 13.71875 -13.8125 L 13.53125 -14.28125 L 13.234375 -15.265625 L 13.03125 -15.6875 L 12.84375 -16.125 L 12.5 -16.625 L 11.984375 -16.90625 L 11.4375 -16.90625 L 10.953125 -16.671875 L 10.53125 -16.171875 L 9.71875 -13.75 L 9.359375 -12.859375 L 8.46875 -10.015625 L 8.21875 -9.640625 L 8.125 -9.125 L 7.75 -8.203125 L 7.5625 -8.171875 L 7.46875 -8.765625 L 5.890625 -14.109375 L 5.6875 -14.53125 L 5.40625 -15.484375 L 5.296875 -15.984375 L 5.109375 -16.46875 L 4.65625 -16.859375 L 4.203125 -17.078125 L 2.234375 -17.109375 L 1.796875 -17.203125 L 1.34375 -17.140625 L 0.828125 -17.109375 L 0.3125 -16.96875 L 0.21875 -16.390625 L 0.34375 -15.734375 L 1.375 -12.9375 L 1.59375 -12.515625 L 2.609375 -9.765625 L 2.75 -9.234375 L 3.4375 -7.390625 L 3.65625 -7 L 5.640625 -1.421875 L 5.859375 -0.953125 Z M 6.015625 -0.546875 "/></g></g></g></svg>